# xmcd
#
# Track frame offsets:
#	150
#	15459
#	29428
#	44749
#	64777
#	75365
#	93499
#	107141
#	122819
#	135926
#	149573
#	164572
#
# Disc length: 2479 seconds
#
# Revision: 0
# Processed by: cddbd v1.5.2PL0 Copyright (c) Steve Scherf et al.
# Submitted via: audiograbber 1.83.01
#
DISCID=a209ad0c
DTITLE=Original Almrauschklang - Weihnacht ist Heimat im Herzen
DYEAR=2011
DGENRE=volkstümlich
TTITLE0=Abschiedsmelodie für Raimund Flörl
TTITLE1=S´ Christkind ist da
TTITLE2=Und es war Weihnacht
TTITLE3=Weihnachtsmelodie
TTITLE4=Weihnacht ist die stille Zeit
TTITLE5=Weihnacht bei uns dahoam 
TTITLE6=Mit Kinderaugen Weihnacht schaug´n (Duett mit Kathrin)
TTITLE7=No oamal Kind sein
TTITLE8=Weihnacht ist Heimat im Herzen
TTITLE9=Ischt heit a Stille Nacht
TTITLE10=Glocken der Heiligen Nacht
TTITLE11=Stille Nacht, Heilige Nacht (Duett mit Kathrin)
EXTD=
EXTT0=
EXTT1=
EXTT2=
EXTT3=
EXTT4=
EXTT5=
EXTT6=
EXTT7=
EXTT8=
EXTT9=
EXTT10=
EXTT11=
PLAYORDER=
